Coordinates
version=1
nRows=21
nColumns=12
inDegrees=yes

Units are S.I. units (second, meters, Newtons, ...)
Angles are in degrees

endheader
time	SC_y	SC_z	SC_x	AC_y	AC_z	AC_x	GH_y	GH_z	GH_yy	EL_x	PS_y
       0.0              -44.65          19.83          49.47          38.38         -15.87          3.809          -24.2          8.307         -158.5          42.67          56.72
   0.03861              -44.65          19.83          49.47          38.38         -15.87          3.808         -24.19          8.313         -158.5          42.68          56.72
   0.07723              -44.64          19.83          49.47          38.38         -15.87          3.808         -24.17           8.32         -158.5          42.69          56.72
    0.1158              -44.64          19.83          49.47          38.38         -15.87          3.807         -24.16          8.327         -158.4           42.7          56.72
    0.1545              -44.64          19.83          49.46          38.38         -15.87          3.807         -24.15          8.335         -158.4          42.71          56.73
    0.1931              -44.63          19.83          49.46          38.38         -15.87          3.806         -24.13          8.343         -158.4          42.72          56.73
    0.2317              -44.63          19.83          49.46          38.38         -15.88          3.806         -24.12          8.352         -158.3          42.73          56.73
    0.2703              -44.62          19.83          49.46          38.38         -15.88          3.805          -24.1          8.362         -158.3          42.74          56.74
    0.3089              -44.62          19.83          49.46          38.38         -15.88          3.804         -24.08          8.372         -158.2          42.75          56.74
    0.3475              -44.61          19.83          49.46          38.38         -15.88          3.803         -24.07          8.383         -158.2          42.77          56.75
    0.3861              -44.61          19.84          49.45          38.38         -15.88          3.802         -24.04          8.394         -158.1          42.78          56.75
    0.4248               -44.6          19.84          49.45          38.38         -15.88          3.801         -24.02          8.407         -158.1           42.8          56.76
    0.4634              -44.59          19.84          49.45          38.38         -15.88            3.8          -24.0          8.421         -158.0          42.82          56.76
     0.502              -44.59          19.84          49.45          38.38         -15.88          3.799         -23.97          8.435         -158.0          42.83          56.77
    0.5406              -44.58          19.84          49.44          38.38         -15.88          3.798         -23.95          8.451         -157.9          42.86          56.77
    0.5792              -44.57          19.84          49.44          38.38         -15.88          3.797         -23.92          8.468         -157.8          42.88          56.78
    0.6178              -44.56          19.84          49.44          38.38         -15.88          3.795         -23.88          8.487         -157.8           42.9          56.79
    0.6564              -44.55          19.85          49.43          38.38         -15.89          3.794         -23.85          8.507         -157.7          42.93           56.8
    0.6951              -44.54          19.85          49.43          38.38         -15.89          3.792         -23.81          8.529         -157.6          42.96          56.81
    0.7337              -44.53          19.85          49.43          38.38         -15.89           3.79         -23.77          8.554         -157.5          42.99          56.82
    0.7723              -44.52          19.85          49.42          38.38         -15.89          3.788         -23.72          8.581         -157.4          43.02          56.83
